<?xml version="1.0" encoding="utf-8"?>
<!-- Generator: Adobe Illustrator 26.0.0, SVG Export Plug-In . SVG Version: 6.00 Build 0)  -->
<svg version="1.1" id="svg24" xmlns:svg="http://www.w3.org/2000/svg"
	 xmlns="http://www.w3.org/2000/svg" xmlns:xlink="http://www.w3.org/1999/xlink" x="0px" y="0px" viewBox="0 0 216 114"
	 style="enable-background:new 0 0 216 114;" xml:space="preserve">
<style type="text/css">
	.st0{fill:#FFFFFF;}
</style>
<path id="path10" class="st0" d="M106.48,76.24c-0.28-0.08-4.62-1.2-9.23-1.2c-8.73,0-13.99,4.71-13.99,11.73
	c0,6.21,4.4,9.31,9.67,10.98c0.58,0.19,1.45,0.46,2.02,0.65c2.35,0.74,4.22,1.84,4.22,3.74c0,2.13-2.17,3.5-6.88,3.5
	c-4.14,0-8.11-1.18-8.94-1.39v8.64c0.47,0.1,5.18,1.03,10.22,1.03c7.25,0,15.54-3.17,15.54-12.6c0-4.57-2.8-8.78-8.95-10.74
	l-2.61-0.83c-1.56-0.49-4.34-1.29-4.34-3.57c0-1.81,2.06-3.08,5.86-3.08c3.28,0,7.26,1.1,7.4,1.14V76.24z M186.52,94.48
	c0,5.46-4.18,9.88-9.8,9.88c-5.62,0-9.79-4.42-9.79-9.88c0-5.45,4.17-9.87,9.79-9.87C182.34,84.61,186.52,89.03,186.52,94.48
	 M176.72,75.05c-11.54,0-19.82,8.71-19.82,19.43c0,10.74,8.28,19.44,19.82,19.44c11.54,0,19.83-8.7,19.83-19.44
	C196.56,83.76,188.27,75.05,176.72,75.05 M70.56,113.25h-9.47V75.72h9.47"/>
<path id="path12" class="st0" d="M48.07,76.4c-0.89-0.26-4.18-1.35-8.64-1.35c-11.53,0-19.99,8.22-19.99,19.43
	c0,12.09,9.34,19.44,19.99,19.44c4.23,0,7.46-1,8.64-1.34v-10.07c-0.41,0.23-3.5,1.99-7.96,1.99c-6.31,0-10.38-4.44-10.38-10.02
	c0-5.75,4.25-10.01,10.38-10.01c4.53,0,7.58,1.81,7.96,2"/>
<g id="use14" transform="translate(98.86)">
	<path id="path12_00000116930849160529834920000011441035694395565468_" class="st0" d="M146.93,76.4
		c-0.89-0.26-4.18-1.35-8.64-1.35c-11.53,0-19.99,8.22-19.99,19.43c0,12.09,9.34,19.44,19.99,19.44c4.23,0,7.46-1,8.64-1.34v-10.07
		c-0.41,0.23-3.5,1.99-7.96,1.99c-6.31,0-10.38-4.44-10.38-10.02c0-5.75,4.25-10.01,10.38-10.01c4.53,0,7.58,1.81,7.96,2"/>
</g>
<g id="g22">
	<path id="path16" class="st0" d="M61.06,4.76c0-2.59-2.11-4.68-4.7-4.68c-2.59,0-4.7,2.1-4.7,4.68V54.6c0,2.6,2.11,4.7,4.7,4.7
		c2.59,0,4.7-2.1,4.7-4.7V4.76z M35.23,22.45c0-2.59-2.11-4.69-4.7-4.69s-4.7,2.1-4.7,4.69v22.78c0,2.6,2.11,4.7,4.7,4.7
		s4.7-2.1,4.7-4.7V22.45z M9.4,35.38c0-2.59-2.11-4.68-4.7-4.68c-2.59,0-4.7,2.1-4.7,4.68v9.85c0,2.6,2.12,4.7,4.7,4.7
		c2.59,0,4.7-2.1,4.7-4.7"/>
	<g id="use18" transform="matrix(-1,0,0,1,112.717,0)">
		<path id="path16_00000176765881417211600500000002279166704004094867_" class="st0" d="M51.66,4.76c0-2.59,2.11-4.68,4.7-4.68
			c2.59,0,4.7,2.1,4.7,4.68V54.6c0,2.6-2.11,4.7-4.7,4.7c-2.59,0-4.7-2.1-4.7-4.7V4.76z M77.49,22.45c0-2.59,2.11-4.69,4.7-4.69
			s4.7,2.1,4.7,4.69v22.78c0,2.6-2.11,4.7-4.7,4.7s-4.7-2.1-4.7-4.7V22.45z M103.31,35.38c0-2.59,2.11-4.68,4.7-4.68
			c2.59,0,4.7,2.1,4.7,4.68v9.85c0,2.6-2.11,4.7-4.7,4.7c-2.59,0-4.7-2.1-4.7-4.7"/>
	</g>
</g>
<g id="use20" transform="matrix(-1,0,0,1,216,0)">
	<g id="g22_00000183244064151516267250000000329910571643774866_">
		<path id="path16_00000016033399955433721110000018280103487546612882_" class="st0" d="M154.94,4.76c0-2.59,2.11-4.68,4.7-4.68
			c2.59,0,4.7,2.1,4.7,4.68V54.6c0,2.6-2.11,4.7-4.7,4.7c-2.59,0-4.7-2.1-4.7-4.7V4.76z M180.77,22.45c0-2.59,2.11-4.69,4.7-4.69
			s4.7,2.1,4.7,4.69v22.78c0,2.6-2.11,4.7-4.7,4.7s-4.7-2.1-4.7-4.7V22.45z M206.6,35.38c0-2.59,2.11-4.68,4.7-4.68
			c2.59,0,4.7,2.1,4.7,4.68v9.85c0,2.6-2.12,4.7-4.7,4.7c-2.59,0-4.7-2.1-4.7-4.7"/>
		<g id="use18_00000098183291357294545460000014451146616262178478_" transform="matrix(-1,0,0,1,112.717,0)">
			<path id="path16_00000113328214243338978020000002096433603089759124_" class="st0" d="M164.34,4.76c0-2.59-2.11-4.68-4.7-4.68
				c-2.59,0-4.7,2.1-4.7,4.68V54.6c0,2.6,2.11,4.7,4.7,4.7c2.59,0,4.7-2.1,4.7-4.7V4.76z M138.51,22.45c0-2.59-2.11-4.69-4.7-4.69
				c-2.59,0-4.7,2.1-4.7,4.69v22.78c0,2.6,2.11,4.7,4.7,4.7c2.59,0,4.7-2.1,4.7-4.7V22.45z M112.69,35.38c0-2.59-2.11-4.68-4.7-4.68
				c-2.59,0-4.7,2.1-4.7,4.68v9.85c0,2.6,2.11,4.7,4.7,4.7c2.59,0,4.7-2.1,4.7-4.7"/>
		</g>
	</g>
</g>
</svg>
