<?xml version="1.0" encoding="utf-8"?>
<!-- Generator: Adobe Illustrator 26.0.0, SVG Export Plug-In . SVG Version: 6.00 Build 0)  -->
<svg version="1.1" id="svg24" xmlns:svg="http://www.w3.org/2000/svg"
	 xmlns="http://www.w3.org/2000/svg" xmlns:xlink="http://www.w3.org/1999/xlink" x="0px" y="0px" viewBox="0 0 216 114"
	 style="enable-background:new 0 0 216 114;" xml:space="preserve">
<style type="text/css">
	.st0{fill:#FFFFFF;}
</style>
<path class="st0" d="M106.48,76.24c-0.28-0.08-4.62-1.2-9.23-1.2c-8.73,0-13.99,4.71-13.99,11.73c0,6.21,4.4,9.31,9.67,10.98
	c0.58,0.19,1.45,0.46,2.02,0.65c2.35,0.74,4.22,1.84,4.22,3.74c0,2.13-2.17,3.5-6.88,3.5c-4.14,0-8.11-1.18-8.94-1.39v8.64
	c0.47,0.1,5.18,1.03,10.22,1.03c7.25,0,15.54-3.17,15.54-12.6c0-4.57-2.8-8.78-8.95-10.74l-2.61-0.83
	c-1.56-0.49-4.34-1.29-4.34-3.57c0-1.81,2.06-3.08,5.86-3.08c3.28,0,7.26,1.1,7.4,1.14V76.24z"/>
<path class="st0" d="M176.72,75.05c-11.54,0-19.82,8.71-19.82,19.43c0,10.74,8.28,19.44,19.82,19.44c11.55,0,19.84-8.7,19.84-19.44
	C196.56,83.76,188.27,75.05,176.72,75.05z M176.72,104.36c-5.61,0-9.79-4.42-9.79-9.88c0-5.45,4.18-9.87,9.79-9.87
	c5.62,0,9.8,4.42,9.8,9.87C186.52,99.94,182.34,104.36,176.72,104.36z"/>
<rect x="61.09" y="75.72" class="st0" width="9.47" height="37.53"/>
<path id="path12" class="st0" d="M48.07,76.4c-0.89-0.26-4.18-1.35-8.64-1.35c-11.53,0-19.99,8.22-19.99,19.43
	c0,12.09,9.34,19.44,19.99,19.44c4.23,0,7.46-1,8.64-1.34v-10.07c-0.41,0.23-3.5,1.99-7.96,1.99c-6.31,0-10.38-4.44-10.38-10.02
	c0-5.75,4.25-10.01,10.38-10.01c4.53,0,7.58,1.81,7.96,2V76.4z"/>
<g id="use14" transform="translate(98.86)">
	<path id="path12_00000181791802798549549120000009532386796674366879_" class="st0" d="M146.93,76.4
		c-0.89-0.26-4.18-1.35-8.64-1.35c-11.53,0-19.99,8.22-19.99,19.43c0,12.09,9.34,19.44,19.99,19.44c4.23,0,7.46-1,8.64-1.34v-10.07
		c-0.41,0.23-3.5,1.99-7.96,1.99c-6.31,0-10.38-4.44-10.38-10.02c0-5.75,4.25-10.01,10.38-10.01c4.53,0,7.58,1.81,7.96,2V76.4z"/>
</g>
<g id="g22">
	<path id="path16" class="st0" d="M4.7,30.7c-2.58,0-4.7,2.1-4.7,4.68v9.86c0,2.6,2.12,4.7,4.7,4.7c2.59,0,4.7-2.1,4.7-4.7v-9.86
		C9.4,32.8,7.29,30.7,4.7,30.7z M30.53,17.76c-2.59,0-4.7,2.1-4.7,4.69v22.79c0,2.6,2.11,4.7,4.7,4.7c2.59,0,4.7-2.1,4.7-4.7V22.45
		C35.23,19.86,33.12,17.76,30.53,17.76z M56.36,0.07c-2.59,0-4.7,2.1-4.7,4.69V54.6c0,2.6,2.11,4.7,4.7,4.7c2.59,0,4.7-2.1,4.7-4.7
		V4.76C61.06,2.17,58.95,0.07,56.36,0.07z"/>
	<g id="use18" transform="matrix(-1,0,0,1,112.717,0)">
		<path id="path16_00000000916978413496110490000002490271307883131827_" class="st0" d="M108.93,30.79
			c-0.16-0.03-0.31-0.05-0.47-0.07c-0.16-0.01-0.32-0.02-0.48-0.02c-0.15,0-0.29,0.01-0.44,0.02c-0.16,0.02-0.31,0.04-0.47,0.07
			c-2.14,0.44-3.76,2.33-3.76,4.59v9.86c0,2.28,1.62,4.17,3.76,4.61c0.16,0.03,0.31,0.05,0.47,0.07c0.15,0.01,0.29,0.02,0.44,0.02
			c0.16,0,0.32-0.01,0.48-0.02c0.16-0.02,0.31-0.04,0.47-0.07c2.15-0.43,3.79-2.32,3.79-4.61v-9.86
			C112.72,33.11,111.08,31.21,108.93,30.79z M82.19,17.76c-2.59,0-4.7,2.1-4.7,4.69v22.79c0,2.6,2.11,4.7,4.7,4.7s4.7-2.1,4.7-4.7
			V22.45C86.89,19.86,84.78,17.76,82.19,17.76z M56.36,0.07c-2.59,0-4.7,2.1-4.7,4.69V54.6c0,2.6,2.11,4.7,4.7,4.7
			c2.59,0,4.7-2.1,4.7-4.7V4.76C61.06,2.17,58.95,0.07,56.36,0.07z"/>
	</g>
</g>
<g id="use20" transform="matrix(-1,0,0,1,216,0)">
	<g id="g22_00000105421151879431654650000012181505297157540285_">
		<path id="path16_00000072271370372956792270000009823185865682690190_" class="st0" d="M211.3,30.7c-2.59,0-4.7,2.1-4.7,4.68v9.86
			c0,2.6,2.11,4.7,4.7,4.7c2.58,0,4.7-2.1,4.7-4.7v-9.86C216,32.8,213.88,30.7,211.3,30.7z M185.47,17.76c-2.59,0-4.7,2.1-4.7,4.69
			v22.79c0,2.6,2.11,4.7,4.7,4.7c2.59,0,4.7-2.1,4.7-4.7V22.45C190.17,19.86,188.06,17.76,185.47,17.76z M159.64,0.07
			c-2.59,0-4.7,2.1-4.7,4.69V54.6c0,2.6,2.11,4.7,4.7,4.7c2.59,0,4.7-2.1,4.7-4.7V4.76C164.34,2.17,162.23,0.07,159.64,0.07z"/>
		<g id="use18_00000048461301164291911950000016351964250602189447_" transform="matrix(-1,0,0,1,112.717,0)">
			<path id="path16_00000086664866330329648770000009521596186144912780_" class="st0" d="M108.93,30.79
				c-0.16-0.03-0.31-0.05-0.47-0.07c-0.16-0.01-0.32-0.02-0.48-0.02c-0.15,0-0.29,0.01-0.44,0.02c-0.16,0.02-0.31,0.04-0.47,0.07
				c-2.15,0.42-3.79,2.32-3.79,4.59v9.86c0,2.29,1.64,4.18,3.79,4.61c0.16,0.03,0.31,0.05,0.47,0.07c0.15,0.01,0.29,0.02,0.44,0.02
				c0.16,0,0.32-0.01,0.48-0.02c0.16-0.02,0.31-0.04,0.47-0.07c2.14-0.44,3.76-2.33,3.76-4.61v-9.86
				C112.69,33.12,111.07,31.23,108.93,30.79z M133.81,17.76c-2.59,0-4.7,2.1-4.7,4.69v22.79c0,2.6,2.11,4.7,4.7,4.7s4.7-2.1,4.7-4.7
				V22.45C138.51,19.86,136.4,17.76,133.81,17.76z M159.64,0.07c-2.59,0-4.7,2.1-4.7,4.69V54.6c0,2.6,2.11,4.7,4.7,4.7
				c2.59,0,4.7-2.1,4.7-4.7V4.76C164.34,2.17,162.23,0.07,159.64,0.07z"/>
		</g>
	</g>
</g>
</svg>
