<?xml version="1.0" encoding="utf-8"?>
<!-- Generator: Adobe Illustrator 26.0.0, SVG Export Plug-In . SVG Version: 6.00 Build 0)  -->
<svg version="1.1" id="Capa_1" xmlns="http://www.w3.org/2000/svg" xmlns:xlink="http://www.w3.org/1999/xlink" x="0px" y="0px"
	 viewBox="0 0 216 113" style="enable-background:new 0 0 216 113;" xml:space="preserve">
<style type="text/css">
	.st0{fill:#E6E6E6;}
</style>
<path class="st0" d="M109.12,101.25c0,9.43-8.29,12.59-15.54,12.59c-5.04,0-9.75-0.92-10.22-1.02v-8.64c0.84,0.21,4.81,1.4,8.95,1.4
	c4.71,0,6.87-1.38,6.87-3.51c0-1.9-1.87-3-4.22-3.74c-0.57-0.19-1.44-0.46-2.02-0.65c-5.28-1.67-9.68-4.77-9.68-10.98
	c0-7.02,5.26-11.73,13.99-11.73c4.61,0,8.95,1.12,9.23,1.19v8.01c-0.14-0.04-4.13-1.14-7.4-1.14c-3.8,0-5.86,1.27-5.86,3.08
	c0,2.28,2.78,3.08,4.34,3.57l2.61,0.83C106.32,92.47,109.12,96.68,109.12,101.25z"/>
<path class="st0" d="M176.73,74.98c-11.55,0-19.83,8.71-19.83,19.43c0,10.73,8.28,19.43,19.83,19.43c11.54,0,19.83-8.7,19.83-19.43
	C196.56,83.69,188.27,74.98,176.73,74.98z M176.73,104.28c-5.62,0-9.79-4.41-9.79-9.87c0-5.45,4.17-9.87,9.79-9.87
	c5.61,0,9.79,4.42,9.79,9.87C186.52,99.87,182.34,104.28,176.73,104.28z"/>
<rect x="61.09" y="75.64" class="st0" width="9.47" height="37.54"/>
<path class="st0" d="M29.74,94.41c0,5.57,4.07,10.01,10.38,10.01c4.45,0,7.55-1.76,7.95-1.99v10.08c-1.17,0.33-4.4,1.33-8.63,1.33
	c-10.65,0-19.99-7.34-19.99-19.43c0-11.21,8.46-19.43,19.99-19.43c4.45,0,7.74,1.08,8.63,1.34V86.4c-0.38-0.2-3.42-2.01-7.95-2.01
	C33.98,84.39,29.74,88.66,29.74,94.41z"/>
<path class="st0" d="M128.67,94.41c0,5.57,4.07,10.01,10.38,10.01c4.45,0,7.55-1.76,7.95-1.99v10.08c-1.17,0.33-4.4,1.33-8.63,1.33
	c-10.65,0-19.99-7.34-19.99-19.43c0-11.21,8.46-19.43,19.99-19.43c4.45,0,7.74,1.08,8.63,1.34V86.4c-0.38-0.2-3.42-2.01-7.95-2.01
	C132.91,84.39,128.67,88.66,128.67,94.41z"/>
<path class="st0" d="M35.23,22.38v22.78c0,2.6-2.11,4.7-4.7,4.7c-2.59,0-4.7-2.1-4.7-4.7V22.38c0-2.59,2.11-4.69,4.7-4.69
	C33.12,17.69,35.23,19.79,35.23,22.38z"/>
<path class="st0" d="M9.41,35.31v9.85c0,2.6-2.12,4.7-4.71,4.7c-2.58,0-4.7-2.1-4.7-4.7v-9.85c0-2.59,2.12-4.69,4.7-4.69
	C7.29,30.62,9.41,32.72,9.41,35.31z"/>
<path class="st0" d="M86.89,22.38v22.78c0,2.6-2.11,4.7-4.7,4.7c-2.59,0-4.7-2.1-4.7-4.7V22.38c0-2.59,2.11-4.69,4.7-4.69
	C84.78,17.69,86.89,19.79,86.89,22.38z"/>
<path class="st0" d="M61.06,4.68v49.84c0,2.61-2.11,4.7-4.7,4.7c-2.59,0-4.7-2.09-4.7-4.7V4.68c0-2.58,2.11-4.68,4.7-4.68
	C58.95,0,61.06,2.1,61.06,4.68z"/>
<path class="st0" d="M216,35.31v9.85c0,2.6-2.11,4.7-4.7,4.7c-2.59,0-4.7-2.1-4.7-4.7v-9.85c0-2.59,2.11-4.69,4.7-4.69
	C213.89,30.62,216,32.72,216,35.31z"/>
<path class="st0" d="M190.17,22.38v22.78c0,2.6-2.11,4.7-4.7,4.7s-4.7-2.1-4.7-4.7V22.38c0-2.59,2.11-4.69,4.7-4.69
	S190.17,19.79,190.17,22.38z"/>
<path class="st0" d="M164.35,4.68v49.84c0,2.61-2.12,4.7-4.71,4.7c-2.59,0-4.7-2.09-4.7-4.7V4.68c0-2.58,2.11-4.68,4.7-4.68
	C162.23,0,164.35,2.1,164.35,4.68z"/>
<path class="st0" d="M138.52,22.38v22.78c0,2.6-2.11,4.7-4.7,4.7c-2.59,0-4.71-2.1-4.71-4.7V22.38c0-2.59,2.12-4.69,4.71-4.69
	C136.41,17.69,138.52,19.79,138.52,22.38z"/>
<path class="st0" d="M112.69,35.31v9.85c0,1.46-0.66,2.76-1.7,3.62c-0.12,0.1-0.25,0.19-0.37,0.28c-0.25,0.17-0.52,0.31-0.8,0.43
	c-0.25,0.11-0.51,0.19-0.77,0.25c-0.08,0.02-0.15,0.04-0.23,0.05h-0.03c-0.13,0.03-0.26,0.04-0.39,0.05s-0.27,0.02-0.41,0.02
	c-0.31,0-0.62-0.03-0.92-0.09c-0.07-0.01-0.14-0.03-0.21-0.05c-0.07-0.01-0.14-0.03-0.21-0.06c-0.13-0.04-0.27-0.09-0.4-0.14
	c-0.13-0.05-0.26-0.11-0.39-0.18c-1.51-0.78-2.54-2.36-2.54-4.18v-9.85c0-1.85,1.06-3.44,2.61-4.21c0.11-0.05,0.21-0.1,0.32-0.14
	c0.13-0.05,0.27-0.1,0.4-0.14c0.07-0.03,0.14-0.05,0.21-0.06c0.07-0.02,0.14-0.04,0.21-0.05c0.3-0.06,0.61-0.09,0.92-0.09
	c0.18,0,0.35,0.01,0.53,0.03c0.1,0.01,0.2,0.03,0.3,0.04c0.08,0.01,0.15,0.03,0.23,0.05c0.11,0.03,0.22,0.06,0.34,0.09
	c0.14,0.04,0.29,0.1,0.43,0.16c0.56,0.24,1.07,0.58,1.49,1C112.16,32.84,112.69,34.02,112.69,35.31z"/>
</svg>
