<?xml version="1.0" encoding="utf-8"?>
<!-- Generator: Adobe Illustrator 26.0.0, SVG Export Plug-In . SVG Version: 6.00 Build 0)  -->
<svg version="1.1" id="Capa_1" xmlns="http://www.w3.org/2000/svg" xmlns:xlink="http://www.w3.org/1999/xlink" x="0px" y="0px"
	 viewBox="0 0 281 300" style="enable-background:new 0 0 281 300;" xml:space="preserve">
<style type="text/css">
	.st0{fill:#FFFFFF;}
</style>
<path class="st0" d="M278.75,77.36c-0.37-0.84-0.75-1.64-1.19-2.36c-0.43-0.72-0.95-1.44-1.54-2.14
	c-3.02-3.71-7.95-7.35-14.25-10.81l-50.67-27.76L160.45,6.5c-6.3-3.46-12.08-5.68-16.97-6.31C142.54,0.07,141.62,0,140.75,0
	c-5.41,0-12.19,2.39-19.71,6.5L70.38,34.28L19.71,62.04c-6.3,3.46-11.23,7.08-14.25,10.81c-0.58,0.72-1.1,1.44-1.54,2.14
	c-0.43,0.72-0.82,1.52-1.19,2.36C0.87,81.7,0,87.55,0,94.45v111.09c0,8.24,1.22,15,3.93,19.46s8.27,8.84,15.79,12.95l50.67,27.78
	l50.67,27.76c6.3,3.44,12.08,5.68,16.97,6.31c0.94,0.12,1.85,0.2,2.72,0.2c0.87,0,1.79-0.07,2.72-0.2
	c4.89-0.63,10.67-2.86,16.97-6.31l101.33-55.54c7.5-4.11,13.08-8.49,15.79-12.95c0.43-0.72,0.82-1.52,1.19-2.36
	c1.87-4.34,2.74-10.21,2.74-17.11V94.45C281.49,87.55,280.62,81.7,278.75,77.36z M81.17,207.69h-0.02c0,2.52-2.71,4.14-4.93,2.92
	l-18.12-9.94c-4.26-2.34-6.92-6.82-6.92-11.68v-53.69c0-2.52,2.71-4.13,4.93-2.92l21.6,11.83c2.14,1.17,3.46,3.41,3.46,5.85V207.69z
	 M230.32,189h-0.02c0,4.86-2.66,9.35-6.92,11.69l-18.12,9.92c-2.22,1.22-4.93-0.38-4.93-2.92v-71.13c0-2.52-2.71-4.14-4.93-2.92
	l-32.74,17.94c-4.26,2.34-6.92,6.82-6.92,11.68v70.56c0,2.44-1.32,4.68-3.46,5.85l-5.15,2.81c-3.99,2.19-8.82,2.19-12.81,0
	l-5.11-2.81c-2.14-1.17-3.46-3.41-3.46-5.85v-70.54c0-4.86-2.66-9.34-6.92-11.68l-67.67-37.08V111c0-4.86,2.66-9.34,6.92-11.68
	l7.47-4.11c3.99-2.19,8.82-2.19,12.8,0l55.98,30.67c3.99,2.19,8.82,2.19,12.8,0l25.86-14.18c2.31-1.27,2.31-4.58,0-5.85l-58.1-31.84
	c-2.31-1.27-2.31-4.58,0-5.85l19.44-10.66c3.99-2.19,8.82-2.19,12.81,0l76.24,41.78c4.28,2.34,6.93,6.82,6.93,11.69V189z"/>
</svg>
